<svg width="19" height="23" viewBox="0 0 19 23" fill="none" xmlns="http://www.w3.org/2000/svg">
<path d="M1.77808 19V4C1.77808 3.33696 2.04147 2.70107 2.51031 2.23223C2.97915 1.76339 3.61503 1.5 4.27808 1.5H16.7781C17.0433 1.5 17.2976 1.60536 17.4852 1.79289C17.6727 1.98043 17.7781 2.23478 17.7781 2.5V20.5C17.7781 20.7652 17.6727 21.0196 17.4852 21.2071C17.2976 21.3946 17.0433 21.5 16.7781 21.5H4.27808C3.61503 21.5 2.97915 21.2366 2.51031 20.7678C2.04147 20.2989 1.77808 19.663 1.77808 19ZM1.77808 19C1.77808 18.337 2.04147 17.7011 2.51031 17.2322C2.97915 16.7634 3.61503 16.5 4.27808 16.5H17.7781M6.77808 9.5H12.7781" stroke="#B3B3B3" stroke-width="2" stroke-linecap="round" stroke-linejoin="round"/>
</svg>
