<svg width="23" height="23" viewBox="0 0 23 23" fill="none" xmlns="http://www.w3.org/2000/svg">
<path d="M1.73817 21L3.13817 19.6M19.3382 3.40001L20.7382 2.00001M8.83817 13.9L13.6382 9.10001M16.8342 12.268C17.2093 12.6432 17.7181 12.8539 18.2487 12.8539C18.7792 12.8539 19.288 12.6432 19.6632 12.268C20.0383 11.8929 20.2491 11.384 20.2491 10.8535C20.2491 10.323 20.0383 9.81416 19.6632 9.43901L17.8952 7.67201C18.2703 8.04702 18.7791 8.25765 19.3095 8.25756C19.5722 8.25751 19.8322 8.20573 20.0749 8.10518C20.3175 8.00462 20.538 7.85726 20.7237 7.67151C20.9094 7.48575 21.0566 7.26524 21.1571 7.02257C21.2576 6.77989 21.3093 6.5198 21.3092 6.25715C21.3092 5.9945 21.2574 5.73443 21.1568 5.49179C21.0563 5.24915 20.9089 5.0287 20.7232 4.84301L17.8952 2.01501C17.5201 1.63986 17.0115 1.42905 16.481 1.42896C15.9506 1.42886 15.4418 1.63949 15.0667 2.01451C14.6915 2.38952 14.4807 2.89821 14.4806 3.42865C14.4805 3.9591 14.6911 4.46786 15.0662 4.84301L13.2992 3.07501C13.1134 2.88925 12.8929 2.7419 12.6502 2.64137C12.4075 2.54084 12.1474 2.4891 11.8847 2.4891C11.622 2.4891 11.3618 2.54084 11.1191 2.64137C10.8764 2.7419 10.6559 2.88925 10.4702 3.07501C10.2844 3.26076 10.1371 3.48128 10.0365 3.72398C9.936 3.96669 9.88426 4.22681 9.88426 4.48951C9.88426 4.7522 9.936 5.01233 10.0365 5.25503C10.1371 5.49773 10.2844 5.71825 10.4702 5.90401L16.8342 12.268ZM4.58117 20.985C4.95618 21.3602 5.46487 21.571 5.99531 21.5711C6.25796 21.5711 6.51805 21.5194 6.76073 21.4189C7.0034 21.3185 7.22391 21.1712 7.40967 20.9855C7.59542 20.7998 7.74278 20.5794 7.84334 20.3367C7.94389 20.0941 7.99567 19.834 7.99572 19.5714C7.99576 19.3087 7.94408 19.0486 7.84361 18.8059C7.74314 18.5633 7.59585 18.3428 7.41017 18.157L9.17717 19.925C9.55231 20.3002 10.0611 20.5109 10.5917 20.5109C11.1222 20.5109 11.631 20.3002 12.0062 19.925C12.3813 19.5499 12.5921 19.041 12.5921 18.5105C12.5921 17.98 12.3813 17.4712 12.0062 17.096L5.64217 10.732C5.45641 10.5463 5.23589 10.3989 4.99319 10.2984C4.75049 10.1978 4.49036 10.1461 4.22767 10.1461C3.96497 10.1461 3.70484 10.1978 3.46214 10.2984C3.21944 10.3989 2.99892 10.5463 2.81317 10.732C2.62741 10.9178 2.48006 11.1383 2.37953 11.381C2.279 11.6237 2.22726 11.8838 2.22726 12.1465C2.22726 12.4092 2.279 12.6693 2.37953 12.912C2.48006 13.1547 2.62741 13.3753 2.81317 13.561L4.58117 15.328C4.20602 14.953 3.69726 14.7424 3.16681 14.7425C2.63637 14.7425 2.12768 14.9534 1.75267 15.3285C1.37765 15.7037 1.16702 16.2124 1.16711 16.7429C1.16721 17.2733 1.37802 17.782 1.75317 18.157L4.58117 20.985Z" stroke="#B3B3B3" stroke-width="2" stroke-linecap="round" stroke-linejoin="round"/>
</svg>
