<svg width="20" height="23" viewBox="0 0 20 23" fill="none" xmlns="http://www.w3.org/2000/svg">
<path d="M7.71464 3.63652C7.76974 3.05686 8.03897 2.51856 8.46974 2.1268C8.90051 1.73503 9.46187 1.51794 10.0441 1.51794C10.6264 1.51794 11.1878 1.73503 11.6185 2.1268C12.0493 2.51856 12.3185 3.05686 12.3736 3.63652C12.4068 4.01097 12.5296 4.37194 12.7318 4.68886C12.9339 5.00578 13.2095 5.26933 13.5351 5.45719C13.8607 5.64506 14.2268 5.75172 14.6023 5.76814C14.9779 5.78456 15.3519 5.71025 15.6926 5.55152C16.2217 5.3113 16.8213 5.27654 17.3746 5.454C17.928 5.63147 18.3955 6.00847 18.6862 6.51162C18.9768 7.01478 19.0699 7.60809 18.9473 8.17609C18.8246 8.74409 18.495 9.24613 18.0226 9.58452C17.715 9.80036 17.4639 10.0871 17.2906 10.4205C17.1172 10.754 17.0267 11.1242 17.0267 11.5C17.0267 11.8758 17.1172 12.2461 17.2906 12.5795C17.4639 12.9129 17.715 13.1997 18.0226 13.4155C18.495 13.7539 18.8246 14.2559 18.9473 14.8239C19.0699 15.3919 18.9768 15.9853 18.6862 16.4884C18.3955 16.9916 17.928 17.3686 17.3746 17.546C16.8213 17.7235 16.2217 17.6887 15.6926 17.4485C15.3519 17.2898 14.9779 17.2155 14.6023 17.2319C14.2268 17.2483 13.8607 17.355 13.5351 17.5428C13.2095 17.7307 12.9339 17.9943 12.7318 18.3112C12.5296 18.6281 12.4068 18.9891 12.3736 19.3635C12.3185 19.9432 12.0493 20.4815 11.6185 20.8732C11.1878 21.265 10.6264 21.4821 10.0441 21.4821C9.46187 21.4821 8.90051 21.265 8.46974 20.8732C8.03897 20.4815 7.76974 19.9432 7.71464 19.3635C7.68158 18.9889 7.55874 18.6278 7.3565 18.3108C7.15427 17.9938 6.87861 17.7301 6.55287 17.5422C6.22713 17.3544 5.86091 17.2477 5.48522 17.2314C5.10953 17.2151 4.73544 17.2896 4.39464 17.4485C3.86553 17.6887 3.26597 17.7235 2.71264 17.546C2.15931 17.3686 1.69181 16.9916 1.40112 16.4884C1.11043 15.9853 1.01735 15.3919 1.14 14.8239C1.26264 14.2559 1.59224 13.7539 2.06464 13.4155C2.37226 13.1997 2.62337 12.9129 2.79673 12.5795C2.97009 12.2461 3.06059 11.8758 3.06059 11.5C3.06059 11.1242 2.97009 10.754 2.79673 10.4205C2.62337 10.0871 2.37226 9.80036 2.06464 9.58452C1.5929 9.24596 1.26389 8.74411 1.14154 8.1765C1.01919 7.60889 1.11225 7.01606 1.40262 6.51323C1.693 6.0104 2.15995 5.6335 2.71273 5.45576C3.26551 5.27802 3.86462 5.31215 4.39364 5.55152C4.7344 5.71025 5.10838 5.78456 5.48394 5.76814C5.8595 5.75172 6.22557 5.64506 6.55118 5.45719C6.87678 5.26933 7.15233 5.00578 7.35451 4.68886C7.55668 4.37194 7.67952 4.01097 7.71264 3.63652" stroke="#B3B3B3" stroke-width="2" stroke-linecap="round" stroke-linejoin="round"/>
<path d="M10.0436 14.5005C11.7005 14.5005 13.0436 13.1573 13.0436 11.5005C13.0436 9.84363 11.7005 8.50049 10.0436 8.50049C8.38679 8.50049 7.04364 9.84363 7.04364 11.5005C7.04364 13.1573 8.38679 14.5005 10.0436 14.5005Z" stroke="#B3B3B3" stroke-width="2" stroke-linecap="round" stroke-linejoin="round"/>
</svg>
