<svg width="32" height="32" viewBox="0 0 32 32" fill="none" xmlns="http://www.w3.org/2000/svg">
<path d="M16 4C16.7364 4 17.3333 4.59695 17.3333 5.33333V6.66667C17.3333 7.40305 16.7364 8 16 8C15.2636 8 14.6667 7.40305 14.6667 6.66667V5.33333C14.6667 4.59695 15.2636 4 16 4Z" fill="#3551F2"/>
<path d="M29.3333 17.3333C29.3333 18.0697 28.7364 18.6667 28 18.6667H26.6667C25.9303 18.6667 25.3333 18.0697 25.3333 17.3333C25.3333 16.597 25.9303 16 26.6667 16H28C28.7364 16 29.3333 16.597 29.3333 17.3333Z" fill="#3551F2"/>
<path d="M5.33333 18.6667C6.06971 18.6667 6.66666 18.0697 6.66666 17.3333C6.66666 16.597 6.06971 16 5.33333 16H4C3.26362 16 2.66666 16.597 2.66666 17.3333C2.66666 18.0697 3.26362 18.6667 4 18.6667H5.33333Z" fill="#3551F2"/>
<path d="M9.40034 10.7337C8.87964 11.2544 8.03542 11.2544 7.51472 10.7337L6.57191 9.79086C6.05121 9.27016 6.05121 8.42594 6.57191 7.90524C7.09261 7.38454 7.93683 7.38454 8.45753 7.90524L9.40034 8.84805C9.92103 9.36875 9.92103 10.213 9.40034 10.7337Z" fill="#3551F2"/>
<path d="M23.5425 7.90524L22.5997 8.84805C22.079 9.36875 22.079 10.213 22.5997 10.7337C23.1204 11.2544 23.9646 11.2544 24.4853 10.7337L25.4281 9.79086C25.9488 9.27016 25.9488 8.42594 25.4281 7.90524C24.9074 7.38454 24.0632 7.38454 23.5425 7.90524Z" fill="#3551F2"/>
<path d="M26.6667 25.3333C26.6667 26.0697 26.0697 26.6667 25.3333 26.6667H6.66666C5.93028 26.6667 5.33333 26.0697 5.33333 25.3333C5.33333 24.597 5.93028 24 6.66666 24H25.3333C26.0697 24 26.6667 24.597 26.6667 25.3333Z" fill="#3551F2"/>
<path d="M11.8514 19.4738C10.9438 17.7163 11.2291 15.5045 12.7002 14.0335C14.5226 12.2111 17.4774 12.2111 19.2998 14.0335C20.7709 15.5045 21.0562 17.7163 20.1486 19.4738C19.8108 20.1281 20.0673 20.9324 20.7216 21.2703C21.3759 21.6081 22.1802 21.3516 22.5181 20.6973C23.9426 17.9385 23.5007 14.4632 21.1854 12.1479C18.3216 9.28404 13.6784 9.28404 10.8145 12.1479C8.49925 14.4632 8.05741 17.9385 9.48194 20.6973C9.81979 21.3516 10.6241 21.6081 11.2784 21.2703C11.9327 20.9324 12.1892 20.1281 11.8514 19.4738Z" fill="#3551F2"/>
</svg>
