<svg width="32" height="32" viewBox="0 0 32 32" fill="none" xmlns="http://www.w3.org/2000/svg">
<path d="M17.3333 3.99999C17.3333 3.26361 16.7364 2.66666 16 2.66666C15.2636 2.66666 14.6667 3.26361 14.6667 3.99999V5.33332C14.6667 6.0697 15.2636 6.66666 16 6.66666C16.7364 6.66666 17.3333 6.0697 17.3333 5.33332V3.99999Z" fill="#3551F2"/>
<path d="M17.3333 28C17.3333 28.7364 16.7364 29.3333 16 29.3333C15.2636 29.3333 14.6667 28.7364 14.6667 28V24.5523L14.2761 24.9428C13.7554 25.4635 12.9112 25.4635 12.3905 24.9428C11.8698 24.4221 11.8698 23.5779 12.3905 23.0572L15.0572 20.3905C15.5779 19.8698 16.4221 19.8698 16.9428 20.3905L19.6095 23.0572C20.1302 23.5779 20.1302 24.4221 19.6095 24.9428C19.0888 25.4635 18.2446 25.4635 17.7239 24.9428L17.3333 24.5523V28Z" fill="#3551F2"/>
<path d="M28 17.3333C28.7364 17.3333 29.3333 16.7364 29.3333 16C29.3333 15.2636 28.7364 14.6667 28 14.6667H26.6667C25.9303 14.6667 25.3333 15.2636 25.3333 16C25.3333 16.7364 25.9303 17.3333 26.6667 17.3333H28Z" fill="#3551F2"/>
<path d="M6.66666 16C6.66666 16.7364 6.06971 17.3333 5.33333 17.3333H4C3.26362 17.3333 2.66666 16.7364 2.66666 16C2.66666 15.2636 3.26362 14.6667 4 14.6667H5.33333C6.06971 14.6667 6.66666 15.2636 6.66666 16Z" fill="#3551F2"/>
<path d="M23.5425 25.4281C24.0632 25.9488 24.9074 25.9488 25.4281 25.4281C25.9488 24.9074 25.9488 24.0632 25.4281 23.5425L24.4853 22.5997C23.9646 22.079 23.1204 22.079 22.5997 22.5997C22.079 23.1204 22.079 23.9646 22.5997 24.4853L23.5425 25.4281Z" fill="#3551F2"/>
<path d="M9.40034 9.40033C8.87964 9.92103 8.03542 9.92103 7.51472 9.40033L6.57191 8.45752C6.05121 7.93682 6.05121 7.0926 6.57191 6.5719C7.09261 6.0512 7.93683 6.0512 8.45753 6.5719L9.40034 7.51471C9.92104 8.03541 9.92104 8.87963 9.40034 9.40033Z" fill="#3551F2"/>
<path d="M6.57191 23.5425C6.05121 24.0632 6.05121 24.9074 6.57191 25.4281C7.09261 25.9488 7.93683 25.9488 8.45753 25.4281L9.40033 24.4853C9.92103 23.9646 9.92103 23.1204 9.40033 22.5997C8.87964 22.079 8.03542 22.079 7.51472 22.5997L6.57191 23.5425Z" fill="#3551F2"/>
<path d="M22.5997 9.40033C22.079 8.87963 22.079 8.03541 22.5997 7.51471L23.5425 6.5719C24.0632 6.0512 24.9074 6.0512 25.4281 6.5719C25.9488 7.0926 25.9488 7.93682 25.4281 8.45752L24.4853 9.40033C23.9646 9.92103 23.1204 9.92103 22.5997 9.40033Z" fill="#3551F2"/>
<path d="M11.8514 18.1405C10.9438 16.3829 11.2291 14.1712 12.7002 12.7002C14.5226 10.8777 17.4774 10.8777 19.2998 12.7002C20.7708 14.1712 21.0561 16.3829 20.1486 18.1405C19.8108 18.7948 20.0673 19.5991 20.7216 19.9369C21.3759 20.2748 22.1802 20.0183 22.518 19.364C23.9426 16.6052 23.5007 13.1298 21.1854 10.8145C18.3216 7.95069 13.6784 7.95069 10.8145 10.8145C8.49924 13.1298 8.0574 16.6052 9.48192 19.364C9.81978 20.0183 10.6241 20.2748 11.2784 19.9369C11.9327 19.5991 12.1892 18.7948 11.8514 18.1405Z" fill="#3551F2"/>
</svg>
