<svg width="32" height="32" viewBox="0 0 32 32" fill="none" xmlns="http://www.w3.org/2000/svg">
<path d="M16 2.66669C16.7364 2.66669 17.3333 3.26364 17.3333 4.00002V5.33335C17.3333 6.06973 16.7364 6.66669 16 6.66669C15.2636 6.66669 14.6667 6.06973 14.6667 5.33335V4.00002C14.6667 3.26364 15.2636 2.66669 16 2.66669Z" fill="#3551F2"/>
<path d="M16 25.3334C16.7364 25.3334 17.3333 25.9303 17.3333 26.6667V28C17.3333 28.7364 16.7364 29.3334 16 29.3334C15.2636 29.3334 14.6667 28.7364 14.6667 28V26.6667C14.6667 25.9303 15.2636 25.3334 16 25.3334Z" fill="#3551F2"/>
<path d="M28 17.3334C28.7364 17.3334 29.3333 16.7364 29.3333 16C29.3333 15.2636 28.7364 14.6667 28 14.6667H26.6667C25.9303 14.6667 25.3333 15.2636 25.3333 16C25.3333 16.7364 25.9303 17.3334 26.6667 17.3334H28Z" fill="#3551F2"/>
<path d="M6.66666 16C6.66666 16.7364 6.06971 17.3334 5.33333 17.3334H4C3.26362 17.3334 2.66666 16.7364 2.66666 16C2.66666 15.2636 3.26362 14.6667 4 14.6667H5.33333C6.06971 14.6667 6.66666 15.2636 6.66666 16Z" fill="#3551F2"/>
<path d="M22.5997 24.4853L23.5425 25.4281C24.0632 25.9488 24.9074 25.9488 25.4281 25.4281C25.9488 24.9074 25.9488 24.0632 25.4281 23.5425L24.4853 22.5997C23.9646 22.079 23.1204 22.079 22.5997 22.5997C22.079 23.1204 22.079 23.9646 22.5997 24.4853Z" fill="#3551F2"/>
<path d="M9.40033 9.40036C8.87963 9.92106 8.03542 9.92106 7.51472 9.40036L6.57191 8.45755C6.05121 7.93685 6.05121 7.09263 6.57191 6.57193C7.09261 6.05123 7.93683 6.05123 8.45752 6.57193L9.40033 7.51474C9.92103 8.03544 9.92103 8.87966 9.40033 9.40036Z" fill="#3551F2"/>
<path d="M6.57191 23.5425C6.05121 24.0632 6.05121 24.9074 6.57191 25.4281C7.09261 25.9488 7.93683 25.9488 8.45753 25.4281L9.40033 24.4853C9.92103 23.9646 9.92103 23.1204 9.40033 22.5997C8.87964 22.079 8.03542 22.079 7.51472 22.5997L6.57191 23.5425Z" fill="#3551F2"/>
<path d="M22.5997 9.40036C22.079 8.87966 22.079 8.03544 22.5997 7.51474L23.5425 6.57193C24.0632 6.05123 24.9074 6.05123 25.4281 6.57193C25.9488 7.09263 25.9488 7.93685 25.4281 8.45755L24.4853 9.40036C23.9646 9.92106 23.1204 9.92106 22.5997 9.40036Z" fill="#3551F2"/>
<path fill-rule="evenodd" clip-rule="evenodd" d="M16 8.66669C11.9499 8.66669 8.66666 11.9499 8.66666 16C8.66666 20.0501 11.9499 23.3334 16 23.3334C20.0501 23.3334 23.3333 20.0501 23.3333 16C23.3333 11.9499 20.0501 8.66669 16 8.66669ZM11.3333 16C11.3333 13.4227 13.4227 11.3334 16 11.3334C18.5773 11.3334 20.6667 13.4227 20.6667 16C20.6667 18.5773 18.5773 20.6667 16 20.6667C13.4227 20.6667 11.3333 18.5773 11.3333 16Z" fill="#3551F2"/>
</svg>
