<svg width="32" height="32" viewBox="0 0 32 32" fill="none" xmlns="http://www.w3.org/2000/svg">
<path d="M17.3333 4.00002C17.3333 3.26364 16.7364 2.66669 16 2.66669C15.2636 2.66669 14.6667 3.26364 14.6667 4.00002V5.33335C14.6667 6.06973 15.2636 6.66669 16 6.66669C16.7364 6.66669 17.3333 6.06973 17.3333 5.33335V4.00002Z" fill="#3551F2"/>
<path d="M17.3333 21.3334C17.3333 20.597 16.7364 20 16 20C15.2636 20 14.6667 20.597 14.6667 21.3334V24.7811L14.2761 24.3905C13.7554 23.8698 12.9112 23.8698 12.3905 24.3905C11.8698 24.9112 11.8698 25.7555 12.3905 26.2762L15.0572 28.9428C15.5779 29.4635 16.4221 29.4635 16.9428 28.9428L19.6095 26.2762C20.1302 25.7555 20.1302 24.9112 19.6095 24.3905C19.0888 23.8698 18.2446 23.8698 17.7239 24.3905L17.3333 24.7811V21.3334Z" fill="#3551F2"/>
<path d="M28 17.3334C28.7364 17.3334 29.3333 16.7364 29.3333 16C29.3333 15.2636 28.7364 14.6667 28 14.6667H26.6667C25.9303 14.6667 25.3333 15.2636 25.3333 16C25.3333 16.7364 25.9303 17.3334 26.6667 17.3334H28Z" fill="#3551F2"/>
<path d="M6.66666 16C6.66666 16.7364 6.06971 17.3334 5.33333 17.3334H4C3.26362 17.3334 2.66666 16.7364 2.66666 16C2.66666 15.2636 3.26362 14.6667 4 14.6667H5.33333C6.06971 14.6667 6.66666 15.2636 6.66666 16Z" fill="#3551F2"/>
<path d="M25.4281 23.5425L24.4853 22.5997C23.9646 22.079 23.1204 22.079 22.5997 22.5997C22.079 23.1204 22.079 23.9646 22.5997 24.4853L23.5425 25.4281C24.0632 25.9488 24.9074 25.9488 25.4281 25.4281C25.9488 24.9074 25.9488 24.0632 25.4281 23.5425Z" fill="#3551F2"/>
<path d="M9.40033 9.40036C8.87963 9.92106 8.03541 9.92106 7.51472 9.40036L6.57191 8.45755C6.05121 7.93685 6.05121 7.09263 6.57191 6.57193C7.09261 6.05123 7.93683 6.05123 8.45752 6.57193L9.40033 7.51474C9.92103 8.03544 9.92103 8.87966 9.40033 9.40036Z" fill="#3551F2"/>
<path d="M6.57191 23.5425C6.05121 24.0632 6.05121 24.9074 6.57191 25.4281C7.09261 25.9488 7.93683 25.9488 8.45753 25.4281L9.40033 24.4853C9.92103 23.9646 9.92103 23.1204 9.40033 22.5997C8.87964 22.079 8.03542 22.079 7.51472 22.5997L6.57191 23.5425Z" fill="#3551F2"/>
<path d="M22.5997 9.40036C22.079 8.87966 22.079 8.03544 22.5997 7.51474L23.5425 6.57193C24.0632 6.05123 24.9074 6.05123 25.4281 6.57193C25.9488 7.09263 25.9488 7.93685 25.4281 8.45755L24.4853 9.40036C23.9646 9.92106 23.1204 9.92106 22.5997 9.40036Z" fill="#3551F2"/>
<path d="M11.8514 18.1405C10.9438 16.383 11.2291 14.1712 12.7002 12.7002C14.5226 10.8777 17.4774 10.8777 19.2998 12.7002C20.7708 14.1712 21.0561 16.383 20.1486 18.1405C19.8108 18.7948 20.0673 19.5991 20.7216 19.937C21.3759 20.2748 22.1802 20.0183 22.5181 19.364C23.9426 16.6052 23.5007 13.1299 21.1854 10.8146C18.3216 7.95073 13.6784 7.95073 10.8145 10.8146C8.49924 13.1299 8.0574 16.6052 9.48193 19.364C9.81978 20.0183 10.6241 20.2748 11.2784 19.937C11.9327 19.5991 12.1892 18.7948 11.8514 18.1405Z" fill="#3551F2"/>
</svg>
