<svg width="32" height="32" viewBox="0 0 32 32" fill="none" xmlns="http://www.w3.org/2000/svg">
<path d="M15.6918 7.3091C15.9397 6.8583 15.9061 6.30511 15.6055 5.88761C15.3049 5.47011 14.7909 5.2628 14.2848 5.35489C9.86597 6.15891 6.51559 10.025 6.51559 14.6763C6.51559 17.0441 7.38582 19.2119 8.82212 20.8723C9.30387 21.4292 10.1459 21.4902 10.7028 21.0084C11.2597 20.5267 11.3207 19.6847 10.8389 19.1277C9.80585 17.9334 9.18225 16.3794 9.18225 14.6763C9.18225 12.2312 10.472 10.0858 12.4084 8.8852C12.3573 9.25776 12.3309 9.63798 12.3309 10.0241C12.3309 14.6145 16.0522 18.3358 20.6426 18.3358C21.0287 18.3358 21.4088 18.3094 21.7813 18.2583C21.5911 18.565 21.3771 18.8557 21.1418 19.1277C20.66 19.6847 20.721 20.5267 21.2779 21.0084C21.8348 21.4902 22.6769 21.4292 23.1586 20.8723C24.241 19.621 25.0026 18.0811 25.3118 16.3819C25.4039 15.8758 25.1966 15.3618 24.7791 15.0612C24.3616 14.7606 23.8084 14.727 23.3576 14.9749C22.5533 15.4171 21.6294 15.6691 20.6426 15.6691C17.5249 15.6691 14.9976 13.1418 14.9976 10.0241C14.9976 9.03729 15.2496 8.11336 15.6918 7.3091Z" fill="#3551F2"/>
<path d="M25.3333 26.6667C26.0697 26.6667 26.6667 26.0697 26.6667 25.3334C26.6667 24.597 26.0697 24 25.3333 24H6.66667C5.93029 24 5.33334 24.597 5.33334 25.3334C5.33334 26.0697 5.93029 26.6667 6.66667 26.6667L25.3333 26.6667Z" fill="#3551F2"/>
</svg>
