<svg width="48" height="48" viewBox="0 0 48 48" fill="none" xmlns="http://www.w3.org/2000/svg">
<path d="M26 6C26 4.89543 25.1046 4 24 4C22.8954 4 22 4.89543 22 6V8C22 9.10457 22.8954 10 24 10C25.1046 10 26 9.10457 26 8V6Z" fill="#FFDC80"/>
<path d="M26 42C26 43.1046 25.1046 44 24 44C22.8954 44 22 43.1046 22 42V36.8284L21.4142 37.4142C20.6332 38.1953 19.3668 38.1953 18.5858 37.4142C17.8047 36.6332 17.8047 35.3668 18.5858 34.5858L22.5858 30.5858C23.3668 29.8047 24.6332 29.8047 25.4142 30.5858L29.4142 34.5858C30.1953 35.3668 30.1953 36.6332 29.4142 37.4142C28.6332 38.1953 27.3668 38.1953 26.5858 37.4142L26 36.8284V42Z" fill="#FFDC80"/>
<path d="M42 26C43.1046 26 44 25.1046 44 24C44 22.8954 43.1046 22 42 22H40C38.8954 22 38 22.8954 38 24C38 25.1046 38.8954 26 40 26H42Z" fill="#FFDC80"/>
<path d="M10 24C10 25.1046 9.10457 26 8 26H6C4.89543 26 4 25.1046 4 24C4 22.8954 4.89543 22 6 22H8C9.10457 22 10 22.8954 10 24Z" fill="#FFDC80"/>
<path d="M35.3137 38.1421C36.0947 38.9232 37.3611 38.9232 38.1421 38.1421C38.9232 37.3611 38.9232 36.0948 38.1421 35.3137L36.7279 33.8995C35.9469 33.1184 34.6805 33.1184 33.8995 33.8995C33.1184 34.6805 33.1184 35.9469 33.8995 36.7279L35.3137 38.1421Z" fill="#FFDC80"/>
<path d="M14.1005 14.1005C13.3195 14.8816 12.0531 14.8816 11.2721 14.1005L9.85787 12.6863C9.07682 11.9052 9.07682 10.6389 9.85787 9.85786C10.6389 9.07682 11.9052 9.07682 12.6863 9.85786L14.1005 11.2721C14.8816 12.0531 14.8816 13.3195 14.1005 14.1005Z" fill="#FFDC80"/>
<path d="M9.85787 35.3137C9.07682 36.0948 9.07682 37.3611 9.85787 38.1421C10.6389 38.9232 11.9052 38.9232 12.6863 38.1421L14.1005 36.7279C14.8816 35.9469 14.8816 34.6805 14.1005 33.8995C13.3195 33.1184 12.0531 33.1184 11.2721 33.8995L9.85787 35.3137Z" fill="#FFDC80"/>
<path d="M33.8995 14.1005C33.1185 13.3195 33.1185 12.0531 33.8995 11.2721L35.3137 9.85786C36.0948 9.07682 37.3611 9.07682 38.1421 9.85786C38.9232 10.6389 38.9232 11.9052 38.1421 12.6863L36.7279 14.1005C35.9469 14.8816 34.6806 14.8816 33.8995 14.1005Z" fill="#FFDC80"/>
<path d="M17.777 27.2108C16.4158 24.5744 16.8437 21.2568 19.0502 19.0503C21.7839 16.3166 26.2161 16.3166 28.9497 19.0503C31.1563 21.2568 31.5842 24.5744 30.2229 27.2108C29.7161 28.1922 30.1009 29.3987 31.0824 29.9054C32.0638 30.4122 33.2703 30.0274 33.7771 29.046C35.9139 24.9078 35.2511 19.6948 31.7782 16.2218C27.4824 11.9261 20.5176 11.9261 16.2218 16.2218C12.7489 19.6948 12.0861 24.9078 14.2229 29.046C14.7297 30.0274 15.9361 30.4122 16.9176 29.9054C17.899 29.3987 18.2838 28.1922 17.777 27.2108Z" fill="#FFDC80"/>
</svg>
